<svg width="22" height="22" viewBox="0 0 22 22" fill="none" xmlns="http://www.w3.org/2000/svg">
<path d="M18.0402 0.439972H3.9602C2.9922 0.439972 2.2002 1.23197 2.2002 2.19997V19.8C2.2002 20.768 2.9922 21.56 3.9602 21.56H18.0402C19.0082 21.56 19.8002 20.768 19.8002 19.8V2.19997C19.8002 1.23197 19.0082 0.439972 18.0402 0.439972ZM7.4802 18.04C7.4802 18.524 7.0842 18.92 6.6002 18.92H4.8402C4.3562 18.92 3.9602 18.524 3.9602 18.04V17.6C3.9602 17.116 4.3562 16.72 4.8402 16.72H6.6002C7.0842 16.72 7.4802 17.116 7.4802 17.6V18.04ZM7.4802 14.52C7.4802 15.004 7.0842 15.4 6.6002 15.4H4.8402C4.3562 15.4 3.9602 15.004 3.9602 14.52V14.08C3.9602 13.596 4.3562 13.2 4.8402 13.2H6.6002C7.0842 13.2 7.4802 13.596 7.4802 14.08V14.52ZM7.4802 11C7.4802 11.484 7.0842 11.88 6.6002 11.88H4.8402C4.3562 11.88 3.9602 11.484 3.9602 11V10.56C3.9602 10.076 4.3562 9.67997 4.8402 9.67997H6.6002C7.0842 9.67997 7.4802 10.076 7.4802 10.56V11ZM12.7602 18.04C12.7602 18.524 12.3642 18.92 11.8802 18.92H10.1202C9.6362 18.92 9.2402 18.524 9.2402 18.04V17.6C9.2402 17.116 9.6362 16.72 10.1202 16.72H11.8802C12.3642 16.72 12.7602 17.116 12.7602 17.6V18.04ZM12.7602 14.52C12.7602 15.004 12.3642 15.4 11.8802 15.4H10.1202C9.6362 15.4 9.2402 15.004 9.2402 14.52V14.08C9.2402 13.596 9.6362 13.2 10.1202 13.2H11.8802C12.3642 13.2 12.7602 13.596 12.7602 14.08V14.52ZM12.7602 11C12.7602 11.484 12.3642 11.88 11.8802 11.88H10.1202C9.6362 11.88 9.2402 11.484 9.2402 11V10.56C9.2402 10.076 9.6362 9.67997 10.1202 9.67997H11.8802C12.3642 9.67997 12.7602 10.076 12.7602 10.56V11ZM18.0402 18.04C18.0402 18.524 17.6442 18.92 17.1602 18.92H15.4002C14.9162 18.92 14.5202 18.524 14.5202 18.04V17.6C14.5202 17.116 14.9162 16.72 15.4002 16.72H17.1602C17.6442 16.72 18.0402 17.116 18.0402 17.6V18.04ZM18.0402 14.52C18.0402 15.004 17.6442 15.4 17.1602 15.4H15.4002C14.9162 15.4 14.5202 15.004 14.5202 14.52V14.08C14.5202 13.596 14.9162 13.2 15.4002 13.2H17.1602C17.6442 13.2 18.0402 13.596 18.0402 14.08V14.52ZM18.0402 11C18.0402 11.484 17.6442 11.88 17.1602 11.88H15.4002C14.9162 11.88 14.5202 11.484 14.5202 11V10.56C14.5202 10.076 14.9162 9.67997 15.4002 9.67997H17.1602C17.6442 9.67997 18.0402 10.076 18.0402 10.56V11ZM18.0402 7.03997C18.0402 7.52397 17.6442 7.91997 17.1602 7.91997H4.8402C4.3562 7.91997 3.9602 7.52397 3.9602 7.03997V3.51997C3.9602 3.03597 4.3562 2.63997 4.8402 2.63997H17.1602C17.6442 2.63997 18.0402 3.03597 18.0402 3.51997V7.03997Z" fill="white"/>
</svg>
