<svg width="13" height="15" viewBox="0 0 13 15" fill="none" xmlns="http://www.w3.org/2000/svg">
<path d="M10.5625 2.03125H13V14.2188H0V2.03125H2.4375V1.21875C2.4375 0.885625 2.55938 0.60125 2.795 0.3575C3.03063 0.121875 3.32312 0 3.65625 0C3.98938 0 4.28188 0.121875 4.5175 0.3575C4.75312 0.60125 4.875 0.885625 4.875 1.21875V2.03125H8.125V1.21875C8.125 0.885625 8.24687 0.60125 8.4825 0.3575C8.71812 0.121875 9.01062 0 9.34375 0C9.67688 0 9.96938 0.121875 10.205 0.3575C10.4406 0.60125 10.5625 0.885625 10.5625 1.21875V2.03125ZM3.25 1.21875V3.25C3.24901 3.30362 3.25884 3.35689 3.2789 3.40663C3.29897 3.45637 3.32885 3.50155 3.36678 3.53947C3.4047 3.5774 3.44988 3.60728 3.49962 3.62735C3.54936 3.64741 3.60263 3.65724 3.65625 3.65625C3.70987 3.65724 3.76314 3.64741 3.81288 3.62735C3.86262 3.60728 3.9078 3.5774 3.94572 3.53947C3.98365 3.50155 4.01353 3.45637 4.0336 3.40663C4.05366 3.35689 4.06349 3.30362 4.0625 3.25V1.21875C4.0625 1.105 4.02187 1.0075 3.94062 0.934375C3.8675 0.853125 3.77 0.8125 3.65625 0.8125C3.5425 0.8125 3.445 0.853125 3.37188 0.934375C3.29063 1.0075 3.25 1.105 3.25 1.21875ZM8.9375 1.21875V3.25C8.9375 3.36375 8.97813 3.46125 9.05125 3.5425C9.1325 3.61563 9.23 3.65625 9.34375 3.65625C9.4575 3.65625 9.555 3.61563 9.63625 3.5425C9.70937 3.46125 9.75 3.36375 9.75 3.25V1.21875C9.75099 1.16513 9.74116 1.11186 9.7211 1.06212C9.70103 1.01238 9.67115 0.967201 9.63322 0.929278C9.5953 0.891355 9.55012 0.861467 9.50038 0.841402C9.45064 0.821338 9.39737 0.811508 9.34375 0.8125C9.29013 0.811508 9.23686 0.821338 9.18712 0.841402C9.13738 0.861467 9.0922 0.891355 9.05428 0.929278C9.01635 0.967201 8.98647 1.01238 8.9664 1.06212C8.94634 1.11186 8.93651 1.16513 8.9375 1.21875ZM12.1875 13.4062V5.28125H0.8125V13.4062H12.1875ZM4.0625 6.09375V7.71875H2.4375V6.09375H4.0625ZM5.6875 6.09375H7.3125V7.71875H5.6875V6.09375ZM8.9375 7.71875V6.09375H10.5625V7.71875H8.9375ZM4.0625 8.53125V10.1562H2.4375V8.53125H4.0625ZM5.6875 8.53125H7.3125V10.1562H5.6875V8.53125ZM8.9375 10.1562V8.53125H10.5625V10.1562H8.9375ZM4.0625 10.9688V12.5938H2.4375V10.9688H4.0625ZM7.3125 12.5938H5.6875V10.9688H7.3125V12.5938ZM10.5625 12.5938H8.9375V10.9688H10.5625V12.5938Z" fill="black"/>
</svg>
