<svg width="24" height="24" viewBox="0 0 24 24" fill="none" xmlns="http://www.w3.org/2000/svg">
<path d="M22 4H2V8H22V4ZM6 7H4V5H6V7Z" fill="white"/>
<path d="M20.6 14.8C20.4092 14.5564 20.1667 14.3583 19.89 14.22C19.6133 14.0816 19.3093 14.0065 19 14H11.998C11.7333 14 11.4795 14.1051 11.2923 14.2923C11.1051 14.4795 11 14.7333 11 14.998V21.002C11 21.2667 11.1051 21.5205 11.2923 21.7077C11.4795 21.8949 11.7333 22 11.998 22H19C19.3131 22.0161 19.625 21.9509 19.9053 21.8107C20.1857 21.6705 20.425 21.4601 20.6 21.2L23 18L20.6 14.8Z" fill="white"/>
<path d="M11.998 12H19C19.5694 12.0092 20.1306 12.1376 20.6473 12.3771C21.164 12.6165 21.6248 12.9615 22 13.39V10H2V14H9.184C9.38909 13.4168 9.76971 12.9115 10.2736 12.5534C10.7774 12.1953 11.3798 12.002 11.998 12ZM4 13V11H6V13H4Z" fill="white"/>
<path d="M9 16H2V20H9V16ZM4 19V17H6V19H4Z" fill="white"/>
</svg>
