<svg width="3" height="12" viewBox="0 0 3 12" fill="none" xmlns="http://www.w3.org/2000/svg">
<path opacity="0.7" d="M0.315919 11.0526C0.315919 11.24 0.374567 11.4232 0.484449 11.579C0.59433 11.7348 0.750509 11.8562 0.933235 11.9279C1.11596 11.9996 1.31703 12.0184 1.51101 11.9818C1.70499 11.9452 1.88317 11.855 2.02302 11.7225C2.16288 11.59 2.25812 11.4212 2.2967 11.2375C2.33529 11.0537 2.31548 10.8632 2.2398 10.6901C2.16411 10.517 2.03594 10.369 1.87149 10.2649C1.70704 10.1608 1.5137 10.1053 1.31592 10.1053C1.0508 10.1056 0.796622 10.2055 0.609153 10.3831C0.421683 10.5607 0.316227 10.8015 0.315919 11.0526ZM1.31592 6.94737C1.11814 6.94737 0.924797 6.89181 0.760348 6.78771C0.595899 6.68361 0.467726 6.53565 0.392039 6.36254C0.316351 6.18943 0.296548 5.99895 0.335133 5.81518C0.373718 5.63141 0.468959 5.4626 0.608811 5.33011C0.748664 5.19762 0.926847 5.10739 1.12083 5.07084C1.31481 5.03428 1.51587 5.05304 1.6986 5.12475C1.88133 5.19645 2.03751 5.31788 2.14739 5.47367C2.25727 5.62946 2.31592 5.81263 2.31592 6C2.31561 6.25117 2.21015 6.49196 2.02268 6.66957C1.83521 6.84717 1.58104 6.94708 1.31592 6.94737ZM1.31592 1.89474C1.11814 1.89474 0.924797 1.83918 0.760348 1.73508C0.595899 1.63098 0.467726 1.48302 0.392039 1.30991C0.316351 1.1368 0.296548 0.94632 0.335133 0.762547C0.373718 0.578776 0.468959 0.409971 0.608811 0.27748C0.748664 0.144988 0.926847 0.054759 1.12083 0.0182047C1.31481 -0.0183496 1.51587 0.000411987 1.6986 0.0721159C1.88133 0.143821 2.03751 0.265246 2.14739 0.421041C2.25727 0.576835 2.31592 0.759998 2.31592 0.94737C2.31561 1.19854 2.21015 1.43933 2.02268 1.61694C1.83521 1.79454 1.58104 1.89445 1.31592 1.89474Z" fill="black"/>
</svg>
