<svg width="14" height="18" viewBox="0 0 14 18" fill="none" xmlns="http://www.w3.org/2000/svg">
<path fill-rule="evenodd" clip-rule="evenodd" d="M9.50016 14V14.8334C9.50016 15.4964 9.23677 16.1323 8.76793 16.6011C8.29909 17.07 7.6632 17.3334 7.00016 17.3334C6.33712 17.3334 5.70124 17.07 5.2324 16.6011C4.76355 16.1323 4.50016 15.4964 4.50016 14.8334V14H1.16683C0.708496 14 0.333496 13.625 0.333496 13.1667C0.333496 12.7084 0.708496 12.3334 1.16683 12.3334H2.00016V7.33335C2.00031 6.15171 2.41882 5.00828 3.1815 4.10573C3.94417 3.20317 5.00177 2.59979 6.16683 2.40252V1.50002C6.16683 1.27901 6.25463 1.06704 6.41091 0.910765C6.56719 0.754484 6.77915 0.666687 7.00016 0.666687C7.22118 0.666687 7.43314 0.754484 7.58942 0.910765C7.7457 1.06704 7.8335 1.27901 7.8335 1.50002V2.40252C10.1985 2.79919 12.0002 4.85585 12.0002 7.33335V12.3334H12.8335C13.2918 12.3334 13.6668 12.7084 13.6668 13.1667C13.6668 13.625 13.2918 14 12.8335 14H9.50016ZM7.00016 15.6667C7.22118 15.6667 7.43314 15.5789 7.58942 15.4226C7.7457 15.2663 7.8335 15.0544 7.8335 14.8334V14H6.16683V14.8334C6.16683 15.0544 6.25463 15.2663 6.41091 15.4226C6.56719 15.5789 6.77915 15.6667 7.00016 15.6667ZM7.8335 10.6667V9.00002H9.50016C9.72118 9.00002 9.93314 8.91222 10.0894 8.75594C10.2457 8.59966 10.3335 8.3877 10.3335 8.16669C10.3335 7.94567 10.2457 7.73371 10.0894 7.57743C9.93314 7.42115 9.72118 7.33335 9.50016 7.33335H7.8335V5.66669C7.8335 5.44567 7.7457 5.23371 7.58942 5.07743C7.43314 4.92115 7.22118 4.83335 7.00016 4.83335C6.77915 4.83335 6.56719 4.92115 6.41091 5.07743C6.25463 5.23371 6.16683 5.44567 6.16683 5.66669V7.33335H4.50016C4.27915 7.33335 4.06719 7.42115 3.91091 7.57743C3.75463 7.73371 3.66683 7.94567 3.66683 8.16669C3.66683 8.3877 3.75463 8.59966 3.91091 8.75594C4.06719 8.91222 4.27915 9.00002 4.50016 9.00002H6.16683V10.6667C6.16683 10.8877 6.25463 11.0997 6.41091 11.2559C6.56719 11.4122 6.77915 11.5 7.00016 11.5C7.22118 11.5 7.43314 11.4122 7.58942 11.2559C7.7457 11.0997 7.8335 10.8877 7.8335 10.6667Z" fill="white"/>
</svg>
