<svg width="18" height="18" viewBox="0 0 18 18" fill="none" xmlns="http://www.w3.org/2000/svg">
<path fill-rule="evenodd" clip-rule="evenodd" d="M16.5 3.50018C16.1022 3.50018 15.7206 3.65822 15.4393 3.93952C15.158 4.22083 15 4.60236 15 5.00018V6.00018H18V5.00018C18 4.60236 17.842 4.22083 17.5607 3.93952C17.2794 3.65822 16.8978 3.50018 16.5 3.50018ZM18 7.00018H15V15.2502L16.5 17.5002L18 15.2502V7.00018Z" fill="white"/>
<path fill-rule="evenodd" clip-rule="evenodd" d="M0 1.5V16.5C0 16.8978 0.158035 17.2794 0.43934 17.5607C0.720644 17.842 1.10218 18 1.5 18H12.5C12.8978 18 13.2794 17.842 13.5607 17.5607C13.842 17.2794 14 16.8978 14 16.5V1.5C14 1.10218 13.842 0.720644 13.5607 0.43934C13.2794 0.158035 12.8978 0 12.5 0H1.5C1.10218 0 0.720644 0.158035 0.43934 0.43934C0.158035 0.720644 0 1.10218 0 1.5ZM7 4.5C7 4.36739 7.05268 4.24021 7.14645 4.14645C7.24021 4.05268 7.36739 4 7.5 4H11.5C11.6326 4 11.7598 4.05268 11.8536 4.14645C11.9473 4.24021 12 4.36739 12 4.5C12 4.63261 11.9473 4.75979 11.8536 4.85355C11.7598 4.94732 11.6326 5 11.5 5H7.5C7.36739 5 7.24021 4.94732 7.14645 4.85355C7.05268 4.75979 7 4.63261 7 4.5ZM7.5 6C7.36739 6 7.24021 6.05268 7.14645 6.14645C7.05268 6.24021 7 6.36739 7 6.5C7 6.63261 7.05268 6.75979 7.14645 6.85355C7.24021 6.94732 7.36739 7 7.5 7H11.5C11.6326 7 11.7598 6.94732 11.8536 6.85355C11.9473 6.75979 12 6.63261 12 6.5C12 6.36739 11.9473 6.24021 11.8536 6.14645C11.7598 6.05268 11.6326 6 11.5 6H7.5ZM7 11C7 10.8674 7.05268 10.7402 7.14645 10.6464C7.24021 10.5527 7.36739 10.5 7.5 10.5H11.5C11.6326 10.5 11.7598 10.5527 11.8536 10.6464C11.9473 10.7402 12 10.8674 12 11C12 11.1326 11.9473 11.2598 11.8536 11.3536C11.7598 11.4473 11.6326 11.5 11.5 11.5H7.5C7.36739 11.5 7.24021 11.4473 7.14645 11.3536C7.05268 11.2598 7 11.1326 7 11ZM7.5 12.5C7.36739 12.5 7.24021 12.5527 7.14645 12.6464C7.05268 12.7402 7 12.8674 7 13C7 13.1326 7.05268 13.2598 7.14645 13.3536C7.24021 13.4473 7.36739 13.5 7.5 13.5H11.5C11.6326 13.5 11.7598 13.4473 11.8536 13.3536C11.9473 13.2598 12 13.1326 12 13C12 12.8674 11.9473 12.7402 11.8536 12.6464C11.7598 12.5527 11.6326 12.5 11.5 12.5H7.5ZM3 11V12.5H4.5V11H3ZM2.5 10H5C5.13261 10 5.25979 10.0527 5.35355 10.1464C5.44732 10.2402 5.5 10.3674 5.5 10.5V13C5.5 13.1326 5.44732 13.2598 5.35355 13.3536C5.25979 13.4473 5.13261 13.5 5 13.5H2.5C2.36739 13.5 2.24021 13.4473 2.14645 13.3536C2.05268 13.2598 2 13.1326 2 13V10.5C2 10.3674 2.05268 10.2402 2.14645 10.1464C2.24021 10.0527 2.36739 10 2.5 10ZM5.8535 4.8535C5.94458 4.7592 5.99498 4.6329 5.99384 4.5018C5.9927 4.3707 5.94011 4.24529 5.84741 4.15259C5.7547 4.05989 5.6293 4.0073 5.4982 4.00616C5.3671 4.00502 5.2408 4.05542 5.1465 4.1465L3.5 5.793L2.8535 5.1465C2.7592 5.05542 2.6329 5.00502 2.5018 5.00616C2.3707 5.0073 2.24529 5.05989 2.15259 5.15259C2.05989 5.24529 2.0073 5.3707 2.00616 5.5018C2.00502 5.6329 2.05542 5.7592 2.1465 5.8535L3.5 7.207L5.8535 4.8535Z" fill="white"/>
</svg>
