<svg width="21" height="21" viewBox="0 0 21 21" fill="none" xmlns="http://www.w3.org/2000/svg">
<path d="M9.33625 11.3925C9.14375 11.3838 8.95125 11.375 8.75 11.375C6.6325 11.375 4.655 11.9612 2.96625 12.9675C2.19625 13.4225 1.75 14.28 1.75 15.1813V17.5H9.8525C9.23448 16.6184 8.86112 15.5887 8.77043 14.5159C8.67975 13.4431 8.87498 12.3653 9.33625 11.3925Z" fill="white"/>
<path d="M8.75 10.5C10.683 10.5 12.25 8.933 12.25 7C12.25 5.067 10.683 3.5 8.75 3.5C6.817 3.5 5.25 5.067 5.25 7C5.25 8.933 6.817 10.5 8.75 10.5Z" fill="white"/>
<path d="M18.1559 14C18.1559 13.8075 18.1297 13.6325 18.1034 13.4488L19.1009 12.565L18.2259 11.0513L16.9572 11.48C16.6772 11.2437 16.3622 11.06 16.0122 10.9287L15.7497 9.625H13.9997L13.7372 10.9287C13.3872 11.06 13.0722 11.2437 12.7922 11.48L11.5234 11.0513L10.6484 12.565L11.6459 13.4488C11.6197 13.6325 11.5934 13.8075 11.5934 14C11.5934 14.1925 11.6197 14.3675 11.6459 14.5512L10.6484 15.435L11.5234 16.9488L12.7922 16.52C13.0722 16.7562 13.3872 16.94 13.7372 17.0712L13.9997 18.375H15.7497L16.0122 17.0712C16.3622 16.94 16.6772 16.7562 16.9572 16.52L18.2259 16.9488L19.1009 15.435L18.1034 14.5512C18.1297 14.3675 18.1559 14.1925 18.1559 14ZM14.8747 15.75C13.9122 15.75 13.1247 14.9625 13.1247 14C13.1247 13.0375 13.9122 12.25 14.8747 12.25C15.8372 12.25 16.6247 13.0375 16.6247 14C16.6247 14.9625 15.8372 15.75 14.8747 15.75Z" fill="white"/>
</svg>
