<svg width="19" height="19" viewBox="0 0 19 19" fill="none" xmlns="http://www.w3.org/2000/svg">
<path d="M15.7119 7.11976C15.1731 7.10679 14.6426 6.98348 14.1533 6.75745C13.6641 6.53141 13.2263 6.20746 12.8672 5.80559C13.0599 6.62579 12.948 7.48811 12.5521 8.23188C12.1562 8.97564 11.5034 9.55012 10.7154 9.84827C9.92737 10.1464 9.05781 10.1479 8.26876 9.85247C7.4797 9.55702 6.82496 8.98478 6.42654 8.24238C6.02812 7.49998 5.91319 6.63805 6.10316 5.81719C6.29313 4.99633 6.77505 4.27253 7.45912 3.78065C8.14319 3.28877 8.98276 3.06236 9.82139 3.1436C10.66 3.22485 11.4405 3.60821 12.0174 4.22226C11.7843 3.37649 11.8419 2.47693 12.181 1.66781C11.2361 1.21144 10.1908 1.00233 9.143 1.06005C8.09521 1.11777 7.0792 1.44044 6.19009 1.99784C5.30099 2.55524 4.56787 3.32915 4.05939 4.24711C3.5509 5.16506 3.28367 6.19704 3.28271 7.24642C3.28271 9.71115 4.66549 11.7748 5.67883 13.2789L5.86355 13.5534C6.87175 15.0146 7.95332 16.4238 9.1041 17.7756L9.50522 18.2453L9.90633 17.7756C11.057 16.4237 12.1385 15.0145 13.1469 13.5534L13.3316 13.2736C14.3397 11.7695 15.7224 9.71115 15.7224 7.24642C15.7172 7.2042 15.7119 7.16198 15.7119 7.11976Z" fill="white"/>
<path d="M9.49986 8.53415C10.5871 8.53415 11.4685 7.65277 11.4685 6.56553C11.4685 5.4783 10.5871 4.59692 9.49986 4.59692C8.41263 4.59692 7.53125 5.4783 7.53125 6.56553C7.53125 7.65277 8.41263 8.53415 9.49986 8.53415Z" fill="white"/>
<path d="M15.8332 5.80555C17.2906 5.80555 18.4721 4.62408 18.4721 3.16666C18.4721 1.70924 17.2906 0.527771 15.8332 0.527771C14.3758 0.527771 13.1943 1.70924 13.1943 3.16666C13.1943 4.62408 14.3758 5.80555 15.8332 5.80555Z" fill="white"/>
</svg>
