<svg width="18" height="17" viewBox="0 0 18 17" fill="none" xmlns="http://www.w3.org/2000/svg">
<path fill-rule="evenodd" clip-rule="evenodd" d="M11.4 16.8H10.2C9.88177 16.8 9.57654 16.6736 9.3515 16.4486C9.12645 16.2235 9.00002 15.9183 9.00002 15.6V1.2C9.00002 0.881741 9.12645 0.576516 9.3515 0.351472C9.57654 0.126428 9.88177 0 10.2 0H11.4C11.7183 0 12.0235 0.126428 12.2486 0.351472C12.4736 0.576516 12.6 0.881741 12.6 1.2V15.6C12.6 15.9183 12.4736 16.2235 12.2486 16.4486C12.0235 16.6736 11.7183 16.8 11.4 16.8ZM1.2 16.7999H1.8C2.11826 16.7999 2.42349 16.6735 2.64853 16.4485C2.87358 16.2234 3 15.9182 3 15.5999V2.99993C3 2.68167 2.87358 2.37644 2.64853 2.1514C2.42349 1.92635 2.11826 1.79992 1.8 1.79992H1.2C0.881741 1.79992 0.576516 1.92635 0.351472 2.1514C0.126428 2.37644 0 2.68167 0 2.99993V15.5999C0 15.9182 0.126428 16.2234 0.351472 16.4485C0.576516 16.6735 0.881741 16.7999 1.2 16.7999ZM8.0485 4.55147C8.27354 4.77651 8.39997 5.08174 8.39997 5.4V6.45C8.39997 6.48978 8.38417 6.52793 8.35604 6.55607C8.32791 6.5842 8.28975 6.6 8.24997 6.6H3.74996C3.71018 6.6 3.67203 6.5842 3.6439 6.55607C3.61577 6.52793 3.59996 6.48978 3.59996 6.45V5.4C3.59996 5.08174 3.72639 4.77651 3.95144 4.55147C4.17648 4.32642 4.4817 4.2 4.79996 4.2H7.19997C7.51823 4.2 7.82345 4.32642 8.0485 4.55147ZM3.59996 15.6C3.59996 15.9182 3.72639 16.2235 3.95144 16.4485C4.17648 16.6735 4.4817 16.8 4.79996 16.8H7.19997C7.51823 16.8 7.82345 16.6735 8.0485 16.4485C8.27354 16.2235 8.39997 15.9182 8.39997 15.6V14.475C8.39997 14.4551 8.39207 14.436 8.378 14.4219C8.36394 14.4079 8.34486 14.4 8.32497 14.4H3.67496C3.65507 14.4 3.636 14.4079 3.62193 14.4219C3.60786 14.436 3.59996 14.4551 3.59996 14.475V15.6ZM3.67496 7.80007H8.32497C8.36639 7.80007 8.39997 7.83365 8.39997 7.87507V13.1251C8.39997 13.1665 8.36639 13.2001 8.32497 13.2001H3.67496C3.63354 13.2001 3.59996 13.1665 3.59996 13.1251V7.87507C3.59996 7.83365 3.63354 7.80007 3.67496 7.80007ZM16.787 2.75438L17.9956 15.5044C18.0511 16.0913 17.5614 16.6178 16.9017 16.6804L15.7074 16.7929C15.0477 16.8563 14.468 16.4307 14.4125 15.8438L13.2038 3.09376C13.1483 2.50688 13.6381 1.98038 14.2977 1.91775L15.4921 1.80525C16.1517 1.74188 16.7315 2.16751 16.787 2.75438Z" fill="white"/>
</svg>
