<svg width="33" height="33" viewBox="0 0 33 33" fill="none" xmlns="http://www.w3.org/2000/svg">
<rect x="0.5" y="0.5" width="32" height="32" rx="3.5" stroke="#9102EA"/>
<path d="M20.3984 22H12.9453V20.9609L16.8828 16.5859C17.4661 15.9245 17.8672 15.388 18.0859 14.9766C18.3099 14.5599 18.4219 14.1302 18.4219 13.6875C18.4219 13.0938 18.2422 12.6068 17.8828 12.2266C17.5234 11.8464 17.0443 11.6562 16.4453 11.6562C15.7266 11.6562 15.1667 11.862 14.7656 12.2734C14.3698 12.6797 14.1719 13.2474 14.1719 13.9766H12.7266C12.7266 12.9297 13.0625 12.0833 13.7344 11.4375C14.4115 10.7917 15.3151 10.4688 16.4453 10.4688C17.5026 10.4688 18.3385 10.7474 18.9531 11.3047C19.5677 11.8568 19.875 12.5938 19.875 13.5156C19.875 14.6354 19.1615 15.9688 17.7344 17.5156L14.6875 20.8203H20.3984V22Z" fill="black"/>
</svg>
