<svg width="15" height="15" viewBox="0 0 15 15" fill="none" xmlns="http://www.w3.org/2000/svg">
<path d="M8.5715 1.78578C8.5715 1.50162 8.45862 1.2291 8.25768 1.02817C8.05675 0.827238 7.78423 0.714355 7.50007 0.714355C7.21591 0.714355 6.94339 0.827238 6.74246 1.02817C6.54152 1.2291 6.42864 1.50162 6.42864 1.78578V6.42864H1.78578C1.50162 6.42864 1.2291 6.54152 1.02817 6.74246C0.827238 6.94339 0.714355 7.21591 0.714355 7.50007C0.714355 7.78423 0.827238 8.05675 1.02817 8.25768C1.2291 8.45862 1.50162 8.5715 1.78578 8.5715H6.42864V13.2144C6.42864 13.4985 6.54152 13.771 6.74246 13.972C6.94339 14.1729 7.21591 14.2858 7.50007 14.2858C7.78423 14.2858 8.05675 14.1729 8.25768 13.972C8.45862 13.771 8.5715 13.4985 8.5715 13.2144V8.5715H13.2144C13.4985 8.5715 13.771 8.45862 13.972 8.25768C14.1729 8.05675 14.2858 7.78423 14.2858 7.50007C14.2858 7.21591 14.1729 6.94339 13.972 6.74246C13.771 6.54152 13.4985 6.42864 13.2144 6.42864H8.5715V1.78578Z" fill="white"/>
</svg>
