<svg width="19" height="19" viewBox="0 0 19 19" fill="none" xmlns="http://www.w3.org/2000/svg">
<circle cx="9.5" cy="9.5" r="9.5" fill="#00DF72"/>
<path d="M10.572 3.78578C10.572 3.50162 10.4591 3.2291 10.2582 3.02817C10.0572 2.82724 9.78472 2.71436 9.50056 2.71436C9.2164 2.71436 8.94387 2.82724 8.74294 3.02817C8.54201 3.2291 8.42913 3.50162 8.42913 3.78578V8.42864H3.78627C3.50211 8.42864 3.22959 8.54152 3.02866 8.74246C2.82773 8.94339 2.71484 9.21591 2.71484 9.50007C2.71484 9.78423 2.82773 10.0568 3.02866 10.2577C3.22959 10.4586 3.50211 10.5715 3.78627 10.5715H8.42913V15.2144C8.42913 15.4985 8.54201 15.771 8.74294 15.972C8.94387 16.1729 9.2164 16.2858 9.50056 16.2858C9.78472 16.2858 10.0572 16.1729 10.2582 15.972C10.4591 15.771 10.572 15.4985 10.572 15.2144V10.5715H15.2148C15.499 10.5715 15.7715 10.4586 15.9725 10.2577C16.1734 10.0568 16.2863 9.78423 16.2863 9.50007C16.2863 9.21591 16.1734 8.94339 15.9725 8.74246C15.7715 8.54152 15.499 8.42864 15.2148 8.42864H10.572V3.78578Z" fill="white"/>
</svg>
