<svg width="20" height="14" viewBox="0 0 20 14" fill="none" xmlns="http://www.w3.org/2000/svg">
<path d="M12.7482 3.20485C12.1918 2.99382 11.6163 2.84034 11.0216 2.74442C10.4269 2.64849 9.79377 2.64849 9.1223 2.74442C8.18225 2.85952 7.31894 3.1377 6.53237 3.57895C5.7458 4.02019 5.06475 4.57655 4.48921 5.24801C3.91367 5.91948 3.47242 6.68686 3.16547 7.55017C2.85851 8.41348 2.69544 9.31516 2.67626 10.2552V10.6869C2.67626 10.8787 2.60911 11.0322 2.47482 11.1473C2.34053 11.2624 2.17746 11.3295 1.98561 11.3487H0.661871C0.470024 11.3487 0.316547 11.2816 0.201439 11.1473C0.0863309 11.013 0.0191847 10.8595 0 10.6869V10.284C0 9.0178 0.220624 7.79957 0.661871 6.62931C1.10312 5.45904 1.70743 4.42307 2.47482 3.52139C3.24221 2.61971 4.16307 1.86192 5.23741 1.24801C6.31175 0.634103 7.47242 0.25041 8.71942 0.096933C9.83213 -0.0565442 10.9065 -0.0277673 11.9424 0.183264C12.9784 0.394295 13.9377 0.749211 14.8201 1.24801C14.9161 1.32475 14.9736 1.42067 14.9928 1.53578C15.012 1.65089 14.964 1.74681 14.8489 1.82355C14.5803 2.03458 14.2638 2.27439 13.8993 2.54298C13.5348 2.81156 13.2566 3.02259 13.0647 3.17607C12.9496 3.25281 12.8441 3.2624 12.7482 3.20485ZM19.0216 5.766C19.6739 7.10892 20 8.52859 20 10.025V10.6869C20 10.8787 19.9329 11.0322 19.7986 11.1473C19.6643 11.2624 19.5012 11.3295 19.3094 11.3487H18.0144C17.8225 11.3487 17.6595 11.2816 17.5252 11.1473C17.3909 11.013 17.3237 10.8595 17.3237 10.6869V10.025C17.3237 9.31516 17.2182 8.59573 17.0072 7.86672C16.9688 7.73242 16.988 7.62691 17.0647 7.55017L18.4748 5.70844C18.5516 5.61252 18.6571 5.56456 18.7914 5.56456C18.9257 5.56456 19.0024 5.63171 19.0216 5.766ZM16.518 3.92427C16.6715 3.80916 16.8249 3.7612 16.9784 3.78039C17.1319 3.79957 17.2662 3.85713 17.3813 3.95305C17.4964 4.04897 17.5635 4.18326 17.5827 4.35593C17.6019 4.52859 17.554 4.69166 17.4388 4.84513L11.5971 12.5574L11.5108 12.6437L11.4245 12.7588C11.0216 13.1425 10.542 13.3343 9.98561 13.3343C9.42926 13.3343 8.95923 13.1425 8.57554 12.7588C8.19185 12.3751 8 11.9051 8 11.3487C8 10.7924 8.19185 10.3224 8.57554 9.93866C8.61391 9.90029 8.65228 9.87151 8.69065 9.85233C8.72902 9.83314 8.76739 9.80437 8.80576 9.766L16.518 3.92427Z" fill="white"/>
</svg>
